<?xml version="1.0" encoding="UTF-8"?>
<svg xmlns="http://www.w3.org/2000/svg" id="Layer_1" data-name="Layer 1" viewBox="0 0 24 24">
  <path d="m20.854,9.354l-2.146,2.146,2.146,2.146c.195.195.195.512,0,.707-.098.098-.226.146-.354.146s-.256-.049-.354-.146l-2.146-2.146-2.146,2.146c-.098.098-.226.146-.354.146s-.256-.049-.354-.146c-.195-.195-.195-.512,0-.707l2.146-2.146-2.146-2.146c-.195-.195-.195-.512,0-.707s.512-.195.707,0l2.146,2.146,2.146-2.146c.195-.195.512-.195.707,0s.195.512,0,.707Zm3.146-3.797v11.652c0,2.176-1.554,4.038-3.694,4.427l-6.72,1.222c-.526.096-1.056.144-1.586.144s-1.06-.048-1.585-.143l-6.719-1.222c-2.141-.39-3.695-2.251-3.695-4.427V5.556c0-1.338.589-2.597,1.617-3.455,1.028-.856,2.374-1.212,3.688-.972l4.209.765c1.073.195,1.964.849,2.486,1.736.521-.888,1.412-1.541,2.485-1.736l4.209-.765c1.317-.241,2.662.115,3.689.973s1.616,2.116,1.616,3.455Zm-12.5-.084c0-1.275-.911-2.366-2.165-2.594l-4.209-.765c-.209-.038-.42-.057-.629-.057-.812,0-1.604.283-2.239.813-.799.667-1.257,1.646-1.257,2.687v11.652c0,1.692,1.209,3.141,2.874,3.444l6.719,1.222c.301.055.604.091.907.111V5.472Zm11.5.084c0-1.041-.458-2.02-1.257-2.687-.8-.667-1.849-.944-2.869-.757l-4.209.765c-1.255.229-2.165,1.319-2.165,2.594v16.513c.303-.02.605-.056.907-.111l6.719-1.221c1.665-.303,2.874-1.751,2.874-3.444V5.556Zm-13.874,3.903l-3.354,3.354c-.246.247-.639.252-.888.017l-1.46-1.41c-.198-.192-.515-.186-.707.013-.192.199-.186.515.013.707l1.465,1.414c.318.3.722.45,1.125.45.419,0,.838-.162,1.16-.483l3.354-3.354c.195-.195.195-.512,0-.707s-.512-.195-.707,0Z"/>
</svg>
